<svg width="25" height="23" viewBox="0 0 25 23" fill="none" xmlns="http://www.w3.org/2000/svg">
<g clip-path="url(#clip0_222_14)">
<path d="M19.071 13.0521C18.2828 14.4864 17.2149 15.9154 16.1228 17.1985C15.0869 18.4081 13.9793 19.5668 12.8047 20.6696C11.6301 19.5668 10.5224 18.4081 9.48653 17.1985C8.39452 15.9154 7.32657 14.4864 6.5384 13.0521C5.7412 11.6029 5.28394 10.2455 5.28394 9.08126C5.28394 7.29022 6.0763 5.57255 7.48671 4.3061C8.89713 3.03964 10.8101 2.32816 12.8047 2.32816C14.7993 2.32816 16.7123 3.03964 18.1227 4.3061C19.5331 5.57255 20.3254 7.29022 20.3254 9.08126C20.3254 10.2455 19.8667 11.6029 19.071 13.0521ZM12.8047 22.5875C12.8047 22.5875 21.8296 14.9078 21.8296 9.08126C21.8296 6.93202 20.8788 4.8708 19.1863 3.35106C17.4938 1.83132 15.1982 0.977539 12.8047 0.977539C10.4111 0.977539 8.11562 1.83132 6.42312 3.35106C4.73062 4.8708 3.77979 6.93202 3.77979 9.08126C3.77979 14.9078 12.8047 22.5875 12.8047 22.5875Z" fill="black"/>
<path d="M12.8049 11.7825C12.0071 11.7825 11.2419 11.4979 10.6777 10.9913C10.1136 10.4848 9.79663 9.79769 9.79663 9.08128C9.79663 8.36486 10.1136 7.67779 10.6777 7.17121C11.2419 6.66463 12.0071 6.38004 12.8049 6.38004C13.6028 6.38004 14.368 6.66463 14.9321 7.17121C15.4963 7.67779 15.8132 8.36486 15.8132 9.08128C15.8132 9.79769 15.4963 10.4848 14.9321 10.9913C14.368 11.4979 13.6028 11.7825 12.8049 11.7825ZM12.8049 13.1331C14.0017 13.1331 15.1495 12.7062 15.9957 11.9464C16.842 11.1865 17.3174 10.1559 17.3174 9.08128C17.3174 8.00666 16.842 6.97605 15.9957 6.21618C15.1495 5.45631 14.0017 5.02942 12.8049 5.02942C11.6082 5.02942 10.4604 5.45631 9.61415 6.21618C8.7679 6.97605 8.29248 8.00666 8.29248 9.08128C8.29248 10.1559 8.7679 11.1865 9.61415 11.9464C10.4604 12.7062 11.6082 13.1331 12.8049 13.1331Z" fill="black"/>
</g>
<defs>
<clipPath id="clip0_222_14">
<rect width="24.0664" height="21.6099" fill="white" transform="translate(0.771484 0.977539)"/>
</clipPath>
</defs>
</svg>
