<svg width="10" height="9" viewBox="0 0 10 9" fill="none" xmlns="http://www.w3.org/2000/svg">
<path d="M4.80493 6.78252C4.00708 6.78252 3.24191 6.49792 2.67774 5.99134C2.11358 5.48476 1.79663 4.79769 1.79663 4.08128C1.79663 3.36486 2.11358 2.67779 2.67774 2.17121C3.24191 1.66463 4.00708 1.38004 4.80493 1.38004C5.60278 1.38004 6.36796 1.66463 6.93212 2.17121C7.49629 2.67779 7.81323 3.36486 7.81323 4.08128C7.81323 4.79769 7.49629 5.48476 6.93212 5.99134C6.36796 6.49792 5.60278 6.78252 4.80493 6.78252ZM4.80493 8.13314C6.00171 8.13314 7.14947 7.70625 7.99572 6.94638C8.84197 6.1865 9.31739 5.1559 9.31739 4.08128C9.31739 3.00666 8.84197 1.97605 7.99572 1.21618C7.14947 0.45631 6.00171 0.0294189 4.80493 0.0294189C3.60816 0.0294189 2.4604 0.45631 1.61415 1.21618C0.767898 1.97605 0.29248 3.00666 0.29248 4.08128C0.29248 5.1559 0.767898 6.1865 1.61415 6.94638C2.4604 7.70625 3.60816 8.13314 4.80493 8.13314Z" fill="black"/>
</svg>
