<?xml version="1.0" standalone="no"?>
<!DOCTYPE svg PUBLIC "-//W3C//DTD SVG 20010904//EN"
 "http://www.w3.org/TR/2001/REC-SVG-20010904/DTD/svg10.dtd">
<svg version="1.0" xmlns="http://www.w3.org/2000/svg"
 width="233.000000pt" height="153.000000pt" viewBox="0 0 233.000000 153.000000"
 preserveAspectRatio="xMidYMid meet">

<g transform="translate(0.000000,153.000000) scale(0.100000,-0.100000)"
fill="#000000" stroke="none">
<path d="M827 1058 c-59 -33 -106 -62 -104 -64 2 -2 40 16 85 40 78 42 97 47
70 17 -9 -10 -9 -12 -1 -7 15 8 14 -36 -2 -46 -6 -5 -6 -8 3 -8 6 0 12 -9 12
-20 0 -16 7 -20 30 -20 l30 0 0 85 c0 47 -3 85 -7 85 -5 -1 -56 -28 -116 -62z"/>
<path d="M960 1035 l0 -85 40 0 40 0 0 85 0 85 -40 0 -40 0 0 -85z"/>
<path d="M1060 1035 c0 -82 1 -85 23 -84 16 1 18 2 5 6 -10 2 -18 8 -18 13 0
5 8 11 18 13 16 4 16 5 0 6 -10 0 -18 5 -18 10 0 5 8 12 18 14 16 4 16 5 0 6
-10 0 -18 5 -18 10 0 5 8 12 18 14 16 4 16 5 0 6 -10 0 -18 5 -18 10 0 5 8 12
18 14 16 4 16 5 0 6 -26 2 -22 29 5 34 19 4 18 4 -5 6 l-28 1 0 -85z"/>
<path d="M1153 1113 c9 -2 23 -2 30 0 6 3 -1 5 -18 5 -16 0 -22 -2 -12 -5z"/>
<path d="M1243 1113 c9 -2 17 -11 17 -18 0 -7 -8 -16 -17 -18 -17 -4 -17 -5 0
-6 9 0 17 -5 17 -10 0 -5 -8 -12 -17 -14 -17 -4 -17 -5 0 -6 9 0 17 -5 17 -10
0 -5 -8 -12 -17 -14 -17 -4 -17 -5 0 -6 9 0 17 -5 17 -10 0 -5 -8 -12 -17 -14
-17 -4 -17 -5 0 -6 9 0 17 -5 17 -10 0 -5 -8 -12 -17 -14 -11 -3 -7 -5 10 -6
l27 -1 0 85 0 85 -27 -1 c-17 -1 -21 -3 -10 -6z"/>
<path d="M1290 1030 c0 -44 4 -80 9 -80 8 0 -21 -186 -32 -196 -2 -3 -8 17
-12 43 -14 100 -27 143 -41 143 -8 0 -14 -1 -14 -2 0 -2 11 -66 25 -142 14
-77 25 -144 25 -148 0 -13 28 -9 33 5 3 8 16 78 28 155 20 121 26 142 41 142
16 0 18 10 18 80 l0 80 -40 0 -40 0 0 -80z"/>
<path d="M1380 1030 l0 -80 51 2 c38 2 46 5 31 11 -22 10 -30 77 -9 77 8 0 7
4 -3 10 -8 5 -12 12 -8 15 3 4 49 -17 102 -45 53 -28 96 -50 96 -47 0 7 -236
137 -249 137 -7 0 -11 -27 -11 -80z"/>
<path d="M1148 1073 c6 -2 18 -2 25 0 6 3 1 5 -13 5 -14 0 -19 -2 -12 -5z"/>
<path d="M1153 1043 c9 -2 23 -2 30 0 6 3 -1 5 -18 5 -16 0 -22 -2 -12 -5z"/>
<path d="M1153 1013 c9 -2 23 -2 30 0 6 3 -1 5 -18 5 -16 0 -22 -2 -12 -5z"/>
<path d="M673 970 l-33 -20 0 -150 c0 -93 4 -150 10 -150 6 0 10 45 10 116 0
74 4 113 10 109 13 -8 13 -1 -4 40 -15 35 -15 35 15 50 16 9 29 18 29 20 0 7
-2 6 -37 -15z"/>
<path d="M1153 983 c9 -2 23 -2 30 0 6 3 -1 5 -18 5 -16 0 -22 -2 -12 -5z"/>
<path d="M850 960 c-8 -5 -10 -10 -5 -10 6 0 17 5 25 10 8 5 11 10 5 10 -5 0
-17 -5 -25 -10z"/>
<path d="M1657 959 c7 -7 15 -10 18 -7 3 3 -2 9 -12 12 -14 6 -15 5 -6 -5z"/>
<path d="M1153 953 c9 -2 23 -2 30 0 6 3 -1 5 -18 5 -16 0 -22 -2 -12 -5z"/>
<path d="M740 818 c0 -83 -3 -118 -10 -108 -13 20 -12 10 1 -29 21 -60 29 -30
29 114 0 90 -4 145 -10 145 -6 0 -10 -48 -10 -122z"/>
<path d="M1130 906 c0 -19 -6 -37 -12 -40 -10 -5 -10 -7 0 -12 8 -4 12 -32 12
-89 0 -94 5 -115 28 -115 12 0 13 3 4 12 -17 17 -17 188 0 188 9 0 9 3 0 12
-7 7 -12 27 -12 45 0 18 -4 33 -10 33 -5 0 -10 -15 -10 -34z"/>
<path d="M1520 790 c0 -93 4 -150 10 -150 6 0 10 57 10 150 0 93 -4 150 -10
150 -6 0 -10 -57 -10 -150z"/>
<path d="M535 894 c-6 -2 -9 -50 -8 -119 2 -111 1 -115 -18 -105 -10 6 -19 8
-19 6 0 -3 18 -15 40 -26 l40 -20 -9 22 c-5 13 -7 74 -6 136 1 61 -1 112 -4
111 -3 0 -10 -2 -16 -5z"/>
<path d="M1779 823 c0 -37 0 -93 1 -124 l1 -55 -40 -19 c-23 -10 -41 -22 -41
-27 0 -5 17 1 38 13 20 13 44 27 52 32 12 7 15 31 14 125 -1 76 -5 117 -13
120 -7 2 -11 -19 -12 -65z"/>
<path d="M822 860 c-22 -9 -23 -14 -20 -107 l3 -98 51 -3 c41 -2 53 1 58 14 9
23 -3 33 -15 11 -7 -11 -22 -17 -44 -17 -35 0 -35 0 -35 45 l0 45 50 0 50 0 0
43 c0 23 -4 48 -8 54 -11 17 -62 25 -90 13z m76 -57 l3 -43 -40 0 -41 0 0 46
0 45 38 -3 c36 -3 37 -4 40 -45z"/>
<path d="M950 865 c0 -3 12 -29 26 -57 l26 -52 -26 -53 c-18 -37 -22 -53 -13
-53 7 0 21 17 31 37 l18 38 19 -38 c11 -20 24 -37 29 -37 14 0 12 9 -14 60
l-24 45 24 47 c13 26 24 52 24 58 0 19 -19 0 -39 -38 l-19 -36 -21 42 c-12 23
-26 42 -31 42 -6 0 -10 -2 -10 -5z"/>
<path d="M1372 858 c-17 -17 -15 -58 3 -58 9 0 15 10 15 26 0 23 3 25 33 22
30 -3 32 -5 32 -43 0 -39 -1 -40 -40 -43 -46 -4 -55 -14 -55 -62 0 -49 15 -60
78 -60 l54 0 -4 105 c-2 80 -7 108 -18 115 -21 14 -84 12 -98 -2z m86 -155
c-3 -35 -6 -38 -35 -41 -32 -3 -33 -2 -33 37 0 40 1 41 36 41 35 0 35 -1 32
-37z"/>
<path d="M1586 854 c-12 -11 -16 -36 -16 -99 0 -97 11 -115 69 -115 40 0 61
14 61 42 0 25 -21 23 -27 -3 -4 -16 -12 -19 -37 -17 -28 3 -31 7 -34 41 l-3
37 50 0 51 0 0 53 c0 29 -5 58 -12 65 -17 17 -84 15 -102 -4z m84 -49 c0 -45
0 -45 -35 -45 -34 0 -35 1 -35 38 0 46 5 52 42 52 27 0 28 -2 28 -45z"/>
<path d="M433 775 c0 -38 2 -53 4 -32 2 20 2 52 0 70 -2 17 -4 1 -4 -38z"/>
<path d="M1893 765 c0 -38 2 -53 4 -32 2 20 2 52 0 70 -2 17 -4 1 -4 -38z"/>
<path d="M594 616 c11 -9 24 -16 30 -16 12 0 7 5 -24 19 -24 11 -24 11 -6 -3z"/>
<path d="M743 603 c59 -2 155 -2 215 0 59 1 10 3 -108 3 -118 0 -167 -2 -107
-3z"/>
<path d="M1373 603 c59 -2 155 -2 215 0 59 1 10 3 -108 3 -118 0 -167 -2 -107
-3z"/>
<path d="M656 582 c11 -10 283 -162 289 -162 3 0 5 38 5 85 l0 85 -42 0 c-32
0 -39 -3 -28 -10 13 -9 13 -11 0 -20 -8 -5 -10 -10 -4 -10 6 0 12 -11 12 -25
0 -21 -3 -23 -22 -14 -19 9 -19 8 2 -7 55 -40 13 -28 -91 26 -105 55 -145 72
-121 52z"/>
<path d="M960 505 l0 -85 40 0 40 0 0 85 0 85 -40 0 -40 0 0 -85z"/>
<path d="M1060 507 c0 -86 0 -87 25 -87 14 0 25 5 25 10 0 6 -9 10 -19 10 -17
0 -19 8 -20 71 0 40 -3 74 -6 77 -3 3 -5 -34 -5 -81z"/>
<path d="M1259 543 c-1 -27 0 -60 1 -75 1 -20 -3 -28 -14 -28 -9 0 -16 -4 -16
-10 0 -5 11 -10 25 -10 25 0 25 1 25 85 0 89 -19 123 -21 38z"/>
<path d="M1290 506 l0 -86 40 0 41 0 -3 83 -3 82 -37 3 -38 3 0 -85z"/>
<path d="M1380 505 c0 -64 3 -86 13 -83 22 6 297 161 292 166 -2 2 -58 -23
-123 -57 -117 -59 -119 -60 -119 -36 0 14 5 25 11 25 6 0 6 4 -2 9 -8 4 -12
19 -10 32 3 21 -2 24 -29 27 l-33 3 0 -86z"/>
<path d="M830 570 c8 -5 20 -10 25 -10 6 0 3 5 -5 10 -8 5 -19 10 -25 10 -5 0
-3 -5 5 -10z"/>
<path d="M1490 570 c-8 -5 -10 -10 -5 -10 6 0 17 5 25 10 8 5 11 10 5 10 -5 0
-17 -5 -25 -10z"/>
<path d="M1510 530 c-9 -6 -10 -10 -3 -10 6 0 15 5 18 10 8 12 4 12 -15 0z"/>
<path d="M1140 424 c0 -10 7 -14 22 -12 32 5 35 28 4 28 -17 0 -26 -5 -26 -16z"/>
</g>
</svg>
