<svg width="23" height="23" viewBox="0 0 23 23" fill="none" xmlns="http://www.w3.org/2000/svg">
<g clip-path="url(#clip0_223_20)">
<path d="M11.5083 5.79004C11.5083 5.6077 11.4359 5.43283 11.3069 5.3039C11.178 5.17497 11.0031 5.10254 10.8208 5.10254C10.6385 5.10254 10.4636 5.17497 10.3347 5.3039C10.2057 5.43283 10.1333 5.6077 10.1333 5.79004V13.3525C10.1333 13.4737 10.1654 13.5927 10.2263 13.6975C10.2871 13.8023 10.3746 13.8892 10.4798 13.9493L15.2923 16.6993C15.4502 16.7846 15.6353 16.8048 15.8079 16.7556C15.9805 16.7063 16.127 16.5914 16.2161 16.4356C16.3052 16.2797 16.3297 16.0952 16.2845 15.9214C16.2394 15.7477 16.128 15.5985 15.9743 15.5058L11.5083 12.9538V5.79004Z" fill="black"/>
<path d="M11.5083 22.9775C14.4257 22.9775 17.2236 21.8186 19.2865 19.7557C21.3494 17.6928 22.5083 14.8949 22.5083 11.9775C22.5083 9.06016 21.3494 6.26226 19.2865 4.19936C17.2236 2.13646 14.4257 0.977539 11.5083 0.977539C8.59092 0.977539 5.79303 2.13646 3.73013 4.19936C1.66723 6.26226 0.508301 9.06016 0.508301 11.9775C0.508301 14.8949 1.66723 17.6928 3.73013 19.7557C5.79303 21.8186 8.59092 22.9775 11.5083 22.9775ZM21.1333 11.9775C21.1333 14.5302 20.1192 16.9784 18.3142 18.7834C16.5092 20.5885 14.061 21.6025 11.5083 21.6025C8.95559 21.6025 6.50744 20.5885 4.7024 18.7834C2.89736 16.9784 1.8833 14.5302 1.8833 11.9775C1.8833 9.42483 2.89736 6.97667 4.7024 5.17164C6.50744 3.3666 8.95559 2.35254 11.5083 2.35254C14.061 2.35254 16.5092 3.3666 18.3142 5.17164C20.1192 6.97667 21.1333 9.42483 21.1333 11.9775Z" fill="black"/>
</g>
<defs>
<clipPath id="clip0_223_20">
<rect width="22" height="22" fill="white" transform="translate(0.508301 0.977539)"/>
</clipPath>
</defs>
</svg>
