<svg width="23" height="23" viewBox="0 0 23 23" fill="none" xmlns="http://www.w3.org/2000/svg">
<path d="M11.5083 22.9775C14.4257 22.9775 17.2236 21.8186 19.2865 19.7557C21.3494 17.6928 22.5083 14.8949 22.5083 11.9775C22.5083 9.06016 21.3494 6.26226 19.2865 4.19936C17.2236 2.13646 14.4257 0.977539 11.5083 0.977539C8.59092 0.977539 5.79303 2.13646 3.73013 4.19936C1.66723 6.26226 0.508301 9.06016 0.508301 11.9775C0.508301 14.8949 1.66723 17.6928 3.73013 19.7557C5.79303 21.8186 8.59092 22.9775 11.5083 22.9775ZM21.1333 11.9775C21.1333 14.5302 20.1192 16.9784 18.3142 18.7834C16.5092 20.5885 14.061 21.6025 11.5083 21.6025C8.95559 21.6025 6.50744 20.5885 4.7024 18.7834C2.89736 16.9784 1.8833 14.5302 1.8833 11.9775C1.8833 9.42483 2.89736 6.97667 4.7024 5.17164C6.50744 3.3666 8.95559 2.35254 11.5083 2.35254C14.061 2.35254 16.5092 3.3666 18.3142 5.17164C20.1192 6.97667 21.1333 9.42483 21.1333 11.9775Z" fill="black"/>
</svg>
