<svg width="22" height="23" viewBox="0 0 22 23" fill="none" xmlns="http://www.w3.org/2000/svg">
<path d="M5.02343 2.4013C4.94226 2.29688 4.8398 2.21093 4.72286 2.14915C4.60592 2.08738 4.47717 2.05119 4.34517 2.043C4.21317 2.03481 4.08094 2.05479 3.95725 2.10163C3.83357 2.14847 3.72127 2.22109 3.62781 2.31467L2.20606 3.7378C1.54193 4.4033 1.29718 5.34517 1.58731 6.17155C2.79145 9.59198 4.75021 12.6974 7.31831 15.2575C9.87846 17.8256 12.9839 19.7844 16.4043 20.9885C17.2307 21.2787 18.1726 21.0339 18.8381 20.3698L20.2598 18.948C20.3534 18.8546 20.426 18.7423 20.4728 18.6186C20.5197 18.4949 20.5397 18.3627 20.5315 18.2307C20.5233 18.0987 20.4871 17.9699 20.4253 17.853C20.3635 17.736 20.2776 17.6336 20.1732 17.5524L17.0011 15.0857C16.8895 14.9992 16.7598 14.9391 16.6216 14.91C16.4835 14.881 16.3405 14.8837 16.2036 14.9179L13.1923 15.67C12.7904 15.7705 12.3693 15.7652 11.97 15.6546C11.5707 15.544 11.2069 15.3319 10.9139 15.0389L7.53693 11.6605C7.24374 11.3677 7.03138 11.004 6.92054 10.6047C6.80969 10.2054 6.80415 9.78423 6.90443 9.38217L7.65793 6.37092C7.69218 6.23397 7.69488 6.09102 7.66582 5.95287C7.63676 5.81472 7.5767 5.68497 7.49018 5.57342L5.02343 2.4013ZM2.58968 1.27792C2.8303 1.03723 3.11937 0.850475 3.4377 0.730067C3.75603 0.60966 4.09633 0.558351 4.43601 0.579549C4.77569 0.600746 5.10697 0.693964 5.40786 0.853014C5.70875 1.01206 5.97236 1.2333 6.18118 1.50205L8.64793 4.6728C9.10031 5.25442 9.25981 6.01205 9.08106 6.72705L8.32893 9.7383C8.29005 9.89426 8.29215 10.0576 8.33503 10.2125C8.37792 10.3675 8.46013 10.5087 8.57368 10.6224L11.9521 14.0008C12.066 14.1146 12.2074 14.1969 12.3626 14.2398C12.5177 14.2827 12.6814 14.2847 12.8376 14.2455L15.8474 13.4934C16.2003 13.4052 16.5686 13.3983 16.9244 13.4734C17.2803 13.5484 17.6145 13.7034 17.9017 13.9265L21.0724 16.3933C22.2123 17.2802 22.3168 18.9645 21.2966 19.9834L19.8748 21.4052C18.8573 22.4227 17.3366 22.8695 15.9189 22.3704C12.2906 21.0938 8.99618 19.0166 6.28018 16.2929C3.5567 13.5773 1.47952 10.2834 0.202683 6.65555C-0.295067 5.2393 0.151808 3.71717 1.16931 2.69967L2.59106 1.27792H2.58968Z" fill="black"/>
</svg>
