<svg width="22" height="19" viewBox="0 0 22 19" fill="none" xmlns="http://www.w3.org/2000/svg">
<path d="M18.7849 3.04783C17.7718 2.20203 16.5652 1.53147 15.2356 1.07524C13.906 0.619007 12.4799 0.386217 11.0405 0.390437C5.00869 0.390437 0.0929461 4.45535 0.0874212 9.44567C0.0874212 11.044 0.592946 12.5989 1.54737 13.9756L-0.000976562 18.67L5.80565 17.411C7.41201 18.1341 9.21163 18.5131 11.0405 18.5135H11.046C17.0791 18.5135 21.9935 14.4486 21.999 9.45366C22.0004 8.26326 21.717 7.08439 21.1651 5.98498C20.6133 4.88557 19.8053 3.88735 18.7849 3.04783ZM11.0405 16.9803C9.40924 16.9807 7.808 16.6176 6.4051 15.9292L6.07361 15.7647L2.62886 16.5119L3.54875 13.7322L3.33328 13.4455C2.42141 12.2462 1.93914 10.8578 1.94239 9.4411C1.94239 5.29849 6.02665 1.91906 11.046 1.91906C12.2418 1.91729 13.4261 2.11131 14.5308 2.48995C15.6355 2.86858 16.6387 3.42434 17.4824 4.12518C18.3292 4.82328 19.0004 5.65315 19.4575 6.5669C19.9145 7.48066 20.1483 8.46022 20.1454 9.44909C20.1399 13.6065 16.0556 16.9803 11.0405 16.9803ZM16.0336 11.3433C15.7615 11.2302 14.4175 10.683 14.1648 10.6053C13.9134 10.531 13.7297 10.4922 13.5501 10.7184C13.3664 10.9434 12.8416 11.4564 12.6841 11.6038C12.5266 11.7557 12.3637 11.7729 12.0902 11.6609C11.8181 11.5467 10.9355 11.309 9.89129 10.5356C9.07637 9.93579 8.53079 9.19318 8.36781 8.96811C8.21035 8.7419 8.35261 8.6208 8.48935 8.5077C8.60952 8.40716 8.76145 8.24264 8.89819 8.1124C9.03631 7.98216 9.08189 7.88619 9.17167 7.73539C9.26145 7.5823 9.21863 7.45205 9.15095 7.33895C9.08189 7.22584 8.53631 6.10965 8.30565 5.65952C8.08466 5.21509 7.85952 5.27679 7.69101 5.27108C7.53355 5.26308 7.34985 5.26308 7.16615 5.26308C7.02742 5.26593 6.89091 5.29247 6.76517 5.34103C6.63944 5.38959 6.52719 5.45913 6.43549 5.54527C6.1841 5.77148 5.48107 6.31872 5.48107 7.43492C5.48107 8.55111 6.46173 9.62389 6.59985 9.77584C6.73521 9.92779 8.52526 12.2116 11.2725 13.1941C11.9217 13.4283 12.4327 13.5666 12.8319 13.6717C13.488 13.8453 14.0805 13.819 14.5529 13.7631C15.0777 13.6968 16.1703 13.2147 16.401 12.6857C16.6275 12.1556 16.6275 11.7032 16.5584 11.6084C16.4907 11.5124 16.307 11.4564 16.0336 11.3433Z" fill="black"/>
</svg>
